<svg xmlns="http://www.w3.org/2000/svg" viewBox="0 0 271.53 271.53"><defs><style>.cls-1{fill:#202231;}.cls-2{fill:#fff;}.cls-3{fill:none;stroke:#1e90ff;stroke-miterlimit:10;stroke-width:7.59px;}</style></defs><title>Asset 4</title><g id="Layer_2" data-name="Layer 2"><g id="Layer_1-2" data-name="Layer 1"><circle class="cls-1" cx="135.76" cy="135.76" r="135.76"/><path class="cls-2" d="M76.65,227.36H68.77V201h7.88Z"/><path class="cls-2" d="M110,227.36h-7.88v-2.85H102c-1.33,2.56-4.61,3.75-7.69,3.75-8.36,0-13.25-6.55-13.25-14.1,0-8.64,6.22-14.05,13.25-14.05,4.32,0,6.74,2.09,7.69,3.7h.09V201H110ZM95.54,220.9c4.94,0,6.6-4.18,6.6-6.74a6.48,6.48,0,0,0-6.65-6.69c-4.51,0-6.5,3.8-6.5,6.79A6.57,6.57,0,0,0,95.54,220.9Z"/><path class="cls-2" d="M115.76,201h7.36v2.8h.09c.81-1.28,2.47-3.7,7.17-3.7a11.36,11.36,0,0,1,6.74,2.28c1.42,1.23,3,3.32,3,8.5v16.47h-7.88V213c0-1.85,0-5.46-4.13-5.46-4.51,0-4.51,3.89-4.51,5.51v14.34h-7.88Z"/><path class="cls-2" d="M170.17,227.36h-7.45v-2.8h-.09c-1.61,3.37-4.84,3.66-6.84,3.66-1.61,0-5.41-.38-7.74-3.32-2.09-2.61-2.37-4.51-2.37-8.12V201h7.88v14.58c0,1.8,0,5.27,4.22,5.27,2.28,0,4.51-1.19,4.51-5.37V201h7.88Z"/><path class="cls-2" d="M203.54,227.36h-7.88v-2.85h-.09c-1.33,2.56-4.61,3.75-7.69,3.75-8.36,0-13.25-6.55-13.25-14.1,0-8.64,6.22-14.05,13.25-14.05,4.32,0,6.74,2.09,7.69,3.7h.09V201h7.88Zm-14.48-6.46c4.94,0,6.6-4.18,6.6-6.74a6.48,6.48,0,0,0-6.65-6.69c-4.51,0-6.5,3.8-6.5,6.79A6.57,6.57,0,0,0,189.06,220.9Z"/><polyline class="cls-3" points="170.53 108.81 200.91 108.81 200.91 186.65 71.82 186.65 71.82 108.81 101.24 108.81"/><path class="cls-3" d="M71.82,108.81v-19c2.41-32.47,31-57.9,62.65-58.85,33-1,63.89,24.95,66.44,58.85v19"/><line class="cls-3" x1="87.01" y1="110.71" x2="87.01" y2="186.65"/><line class="cls-3" x1="185.72" y1="110.71" x2="185.72" y2="188.54"/><line class="cls-3" x1="136.36" y1="186.65" x2="136.36" y2="20.85"/></g></g></svg>